# xmcd
#
# Track frame offsets:
# 150
# 11680
# 30490
# 52897
# 63185
# 75185
# 86842
# 102855
# 114437
# 126855
# 141912
# 162540
#
# Disc length: 2392 seconds
#
#
# Revision: 0
# Processed by: cddbd v1.5.1PL2 Copyright (c) Steve Scherf et al.
# Submitted via: FreeRIP 2.944 
#
DISCID=9009560c
DTITLE=Daddy Cool - The Daddy Cool Collection
DYEAR=1984
DGENRE=Blues
TTITLE0=Daddy Cool
TTITLE1=Eagle Rock
TTITLE2=Duke of Earl
TTITLE3=Little Darlin'
TTITLE4=Jerry's Jump
TTITLE5=Bom Bom
TTITLE6=Come Back Again
TTITLE7=Cadillacin'
TTITLE8=One Night
TTITLE9=Boogie Man
TTITLE10=Donna Forgive Me
TTITLE11=At the Rockhouse
EXTD=
EXTT0=
EXTT1=
EXTT2=
EXTT3=
EXTT4=
EXTT5=
EXTT6=
EXTT7=
EXTT8=
EXTT9=
EXTT10=
EXTT11=
PLAYORDER=
